
<svg xmlns="http://www.w3.org/2000/svg" xmlns:xlink="http://www.w3.org/1999/xlink" version="1.1" viewBox="-10 0 522 512">
   <path fill="currentColor"
d="M405 314q10 0 18.5 -2t19.5 -5v21q-18 7 -41 7q-33 0 -51 -20q-15 -17 -18 -46h-24q5 8 5 20q0 20 -14.5 32t-39.5 12h-55v-64h-36l24 64h-27l-15 -43h-58l-15 43h-27l24 -64h-24v-26h34l24 -64h27l23 64h46v-64h45q18 0 29 3q9 2 16 8q15 9 15 29q0 13 -7 22l-2 2h33
q2 -16 8 -28q9 -18 25 -27.5t39 -9.5t43 10l-9 21q-7 -3 -16.5 -6t-18.5 -3q-21 0 -34 15q-9 11 -11 28h75v26h-75q2 20 11 30q12 15 34 15zM114 229l-5 14h27l-8 -20l-6 -22q-4 16 -8 28zM230 201v42h30q10 -1 17 -5t7 -15.5t-8 -16.5t-25 -5h-21zM144 269v0h-44h44z
M280 269h-1h-49v43h26q16 0 24 -6t8 -18.5t-8 -18.5z" />
</svg>
