
<svg xmlns="http://www.w3.org/2000/svg" xmlns:xlink="http://www.w3.org/1999/xlink" version="1.1" viewBox="-10 0 522 512">
   <path fill="currentColor"
d="M435 256q0 -49 -24 -90t-65 -65t-90 -24t-90 24t-65 65t-24 90t24 90t65 65t90 24t90 -24t65 -65t24 -90zM274 294h-40v-11q0 -14 6 -24.5t23 -23.5q15 -11 20.5 -18t5.5 -16.5t-7.5 -14.5t-20.5 -5q-22 0 -51 15l-16 -33q33 -19 70 -19q31 0 49.5 15t18.5 40
q0 17 -7.5 28.5t-28.5 26.5q-14 11 -18 16.5t-4 14.5v9zM236 364q-7 -6 -7 -19t7 -19t19.5 -6t19.5 6.5t7 18.5t-7 19t-19.5 7t-19.5 -7z" />
</svg>
