
<svg xmlns="http://www.w3.org/2000/svg" xmlns:xlink="http://www.w3.org/1999/xlink" version="1.1" viewBox="-10 0 522 512">
   <path fill="currentColor"
d="M410 51h-77v26h-154v-26h-77v384h77v-25h154v25h77v-384zM154 77v25h-26v-25h26zM384 77v25h-26v-25h26zM333 102v128h-154v-128h154zM154 128v26h-26v-26h26zM384 128v26h-26v-26h26zM154 179v26h-26v-26h26zM384 179v26h-26v-26h26zM154 230v26h-26v-26h26zM384 230v26
h-26v-26h26zM333 256v128h-154v-128h154zM154 282v25h-26v-25h26zM384 282v25h-26v-25h26zM154 333v25h-26v-25h26zM384 333v25h-26v-25h26zM154 384v26h-26v-26h26zM384 384v26h-26v-26h26z" />
</svg>
