
<svg xmlns="http://www.w3.org/2000/svg" xmlns:xlink="http://www.w3.org/1999/xlink" version="1.1" viewBox="-10 0 522 512">
   <path fill="currentColor"
d="M96 435h320q45 -56 45 -128q0 -55 -27.5 -102t-74.5 -75t-103 -28t-103 28t-74.5 75t-27.5 102q0 72 45 128zM230 154q0 -11 7.5 -18.5t18.5 -7.5t18.5 7.5t7.5 18t-7.5 18t-18.5 7.5t-18.5 -7.5t-7.5 -17.5zM102 205q0 -11 7.5 -18.5t18.5 -7.5t18.5 7.5t7.5 18.5
t-7.5 18t-18.5 7t-18.5 -7t-7.5 -18zM218 292q14 -13 92 -53q38 -20 75 -37v0l-37 76q-39 78 -53 91q-16 16 -38.5 16t-38.5 -16t-16 -38.5t16 -38.5zM77 333q0 -11 7.5 -18.5t18 -7.5t18 7.5t7.5 18.5t-7.5 18t-18 7t-18 -7t-7.5 -18zM230 333q0 -11 7.5 -18.5t18.5 -7.5
t18.5 7.5t7.5 18.5t-7.5 18t-18.5 7t-18.5 -7t-7.5 -18zM384 333q0 -11 7.5 -18.5t18 -7.5t18 7.5t7.5 18.5t-7.5 18t-18 7t-18 -7t-7.5 -18z" />
</svg>
