
<svg xmlns="http://www.w3.org/2000/svg" xmlns:xlink="http://www.w3.org/1999/xlink" version="1.1" viewBox="-10 0 522 512">
   <path fill="currentColor"
d="M406 71q9 0 18 2q6 3 16 7l9 -21q-20 -10 -42.5 -10t-39.5 9.5t-25.5 27.5t-8.5 42q0 38 18 58.5t51 20.5q23 0 41 -7v-22q-8 3 -18 5t-19 2q-23 0 -35 -14t-12 -42t12.5 -43t34.5 -15zM166 205h27l-57 -154h-27l-58 154h27l14 -43h59zM205 51v154h55q26 0 40.5 -11.5
t14.5 -32.5q0 -16 -7.5 -24.5t-24.5 -12.5v-1q13 -2 20.5 -11t7.5 -22q0 -20 -14.5 -29.5t-46.5 -9.5h-45zM230 115v-43h22q17 0 24.5 5t7.5 16t-7 16.5t-23 5.5h-24zM144 141h-44l14 -40q5 -17 8 -28l8 26zM230 135h25q17 0 25.5 6t8.5 18t-8.5 18.5t-23.5 6.5h-27v-49z
M102 333l128 128l231 -205l-26 -26l-205 154l-102 -77z" />
</svg>
