
<svg xmlns="http://www.w3.org/2000/svg" xmlns:xlink="http://www.w3.org/1999/xlink" version="1.1" viewBox="-10 0 522 512">
   <path fill="currentColor"
d="M461 256q0 -56 -27.5 -103t-74.5 -74.5t-103 -27.5t-103 27.5t-74.5 74.5t-27.5 103t27.5 103t74.5 74.5t103 27.5t103 -27.5t74.5 -74.5t27.5 -103zM185 91l38 96q-25 11 -36 36l-96 -38q14 -31 38.5 -55.5t55.5 -38.5zM421 185l-96 38q-11 -25 -36 -36l38 -96
q31 14 55.5 38.5t38.5 55.5zM256 307q-21 0 -36 -15t-15 -36t15 -36t36 -15t36 15t15 36t-15 36t-36 15zM91 327l96 -38q11 25 36 36l-38 96q-31 -14 -55.5 -38.5t-38.5 -55.5zM327 421l-38 -96q25 -11 36 -36l96 38q-14 31 -38.5 55.5t-55.5 38.5z" />
</svg>
