
<svg xmlns="http://www.w3.org/2000/svg" xmlns:xlink="http://www.w3.org/1999/xlink" version="1.1" viewBox="-10 0 522 512">
   <path fill="currentColor"
d="M435 433v-64q0 -32 -13 -54q-17 -30 -41 -44q-11 -8 -37 -12q-18 -3 -37 -3l-41 44l16 33v77l-26 28l-26 -28v-77l18 -33l-43 -44q-21 0 -40 3q-25 4 -37 11.5t-22 19.5q-7 9 -16 25q-8 13 -10.5 25t-2.5 29v64l21 7q28 8 61 13q47 8 97 8q70 0 132 -14q31 -7 47 -14v0z
M256 54q-36 0 -55.5 29t-13.5 68t24.5 63t44.5 24t44.5 -24t24.5 -64t-13.5 -68t-55.5 -28z" />
</svg>
