
<svg xmlns="http://www.w3.org/2000/svg" xmlns:xlink="http://www.w3.org/1999/xlink" version="1.1" viewBox="-10 0 522 512">
   <path fill="currentColor"
d="M230 77q0 -24 -25 -51q-10 10 -18 24.5t-8 25t8 18.5t18 8t17.5 -7.5t7.5 -17.5zM333 77q0 -24 -26 -51q-10 10 -17.5 24.5t-7.5 25t7.5 18.5t18 8t18 -7.5t7.5 -17.5zM230 230v-89q0 -11 -7.5 -18.5t-18 -7.5t-18 8t-7.5 18v89q0 11 7.5 18.5t18 7.5t18 -8t7.5 -18z
M333 230v-89q0 -11 -7.5 -18.5t-18 -7.5t-18 8t-7.5 18v89q0 11 7.5 18.5t18 7.5t18 -8t7.5 -18zM435 256q0 -28 -24.5 -51.5t-64.5 -37.5v63q0 16 -11.5 27.5t-27.5 11.5t-27 -11.5t-11 -27.5v-76h-26v76q0 16 -11 27.5t-27 11.5t-27.5 -11.5t-11.5 -27.5v-63
q-40 14 -64.5 37.5t-24.5 51.5t19 50q21 23 63 36q8 3 27 10q22 9 34 13q19 6 36 6t37 -6q11 -4 34 -13q18 -7 26 -10q42 -13 62 -35.5t20 -50.5zM256 395q16 0 36 -6q12 -3 33 -11.5t30 -10.5q33 -10 52 -26q13 -11 28 -34v77q0 28 -24 51.5t-65 37t-90 13.5t-90 -13.5
t-65 -37t-24 -51.5v-77q14 23 29 34q19 17 51 26q9 2 29 10q22 9 34 12q20 6 36 6z" />
</svg>
