
<svg xmlns="http://www.w3.org/2000/svg" xmlns:xlink="http://www.w3.org/1999/xlink" version="1.1" viewBox="-10 0 522 512">
   <path
d="M206 114q-4 17 1.5 38t17.5 35q14 16 31 16t30 -15t18.5 -36t1.5 -38.5t-18.5 -29.5t-31.5 -12t-31.5 12t-18.5 30zM100 137q-3 14 1.5 32t15.5 30.5t25.5 12.5t25.5 -12.5t16 -30.5t1.5 -32.5t-16 -24.5t-27 -10t-27 10t-15.5 25zM327 137q-4 14 1 32t16 30.5t25.5 12.5
t25.5 -12.5t15.5 -30.5t1 -32.5t-15.5 -24.5t-26.5 -10t-27 10t-15.5 25zM312 430l32 -110q14 -47 -10.5 -75t-77.5 -28t-78 28t-10 75l32 110q5 13 20.5 22t35 9t35.5 -9t21 -22zM155 234q-27 38 -10 92l28 97q-13 8 -30 8t-30.5 -7t-17.5 -19l-27 -93q-12 -40 9 -63.5
t66 -23.5q10 0 20 1zM369 225q45 0 66 23.5t9 63.5l-27 93q-4 12 -17.5 19t-30.5 7t-31 -8l29 -96q17 -55 -11 -93q-3 -4 -7 -8q10 -1 20 -1z" />
</svg>
