
<svg xmlns="http://www.w3.org/2000/svg" xmlns:xlink="http://www.w3.org/1999/xlink" version="1.1" viewBox="-10 0 522 512">
   <path fill="currentColor"
d="M267 42q-11 -11 -27 -11t-27 11l-145 145q-11 12 -11 27.5t11 27t27 11.5t27 -11l145 -145q11 -11 11.5 -27t-11.5 -28zM340 115q-12 -11 -27.5 -11t-27.5 11l-144 145q-12 11 -12 27t11.5 27t27.5 11t27 -11l145 -145q11 -11 11 -27t-11 -27zM367 287l107 107
q11 11 11 27t-11 27.5t-27 11.5t-27 -12l-107 -107l-46 46q-11 11 -27 11t-27 -11.5t-11 -27.5t11 -27l145 -145q11 -11 27 -11t27 11.5t11 27t-11 27.5zM128 384q0 -18 -11 -45q-8 -19 -20 -40l-11 -17l-9 19q-11 24 -17 43q-9 26 -9 40q0 23 10 37t25 14h8q34 0 34 -51z
" />
</svg>
