
<svg xmlns="http://www.w3.org/2000/svg" xmlns:xlink="http://www.w3.org/1999/xlink" version="1.1" viewBox="-10 0 522 512">
   <path fill="currentColor"
d="M454 58q21 21 28.5 49.5t0 57t-28.5 49.5l-39 39q-11 12 -28 20l-54 -17l43 -42l39 -39q16 -16 16 -39t-16 -39t-39 -16t-39 16l-20 19l-61 63l-17 -55q8 -16 20 -27l39 -39q21 -21 49.5 -28.5t57 0t49.5 28.5zM51 102l205 154l-154 -205zM154 51l102 205l-51 -205h-51z
M51 154l205 102l-205 -51v-51zM240 350l16 -17l19 60l-35 36q-22 21 -50 28.5t-56.5 0t-50 -29t-29 -50t0 -56.5t28.5 -50l36 -35l60 19l-17 16l-39 40q-17 16 -17 38.5t16.5 39t39 16.5t38.5 -17zM461 410l-205 -154l154 205zM358 461l-102 -205l51 205h51zM461 358
l-205 -102l205 51v51z" />
</svg>
