
<svg xmlns="http://www.w3.org/2000/svg" xmlns:xlink="http://www.w3.org/1999/xlink" version="1.1" viewBox="-10 0 522 512">
   <path fill="currentColor"
d="M179 133q21 0 36 15t15 36q0 14 -7 26l-12 -3q-16 -2 -32 -2q-25 0 -44 5v0q-7 -12 -7 -26q0 -21 15 -36t36 -15zM333 133q21 0 36 15t15 36q0 14 -7 26l-13 -3q-15 -2 -31 -2q-26 0 -44 5v0q-7 -12 -7 -26q0 -21 14.5 -36t36.5 -15zM256 484q71 0 129.5 -41.5
t81.5 -109.5l-34 -11q-19 56 -68 91t-109 35t-109 -35t-68 -91l-34 11q23 68 81.5 109.5t129.5 41.5z" />
</svg>
