
<svg xmlns="http://www.w3.org/2000/svg" xmlns:xlink="http://www.w3.org/1999/xlink" version="1.1" viewBox="-10 0 522 512">
   <path fill="currentColor"
d="M256 26q125 0 182 48q48 41 48 118t-48 118q-57 48 -182 48t-182 -48q-48 -41 -48 -118t48 -118q57 -48 182 -48zM141 230q16 0 27 -11t11 -27t-11 -27t-27 -11t-27.5 11t-11.5 27t11.5 27t27.5 11zM256 230q16 0 27 -11t11 -27t-11 -27t-27 -11t-27 11t-11 27t11 27
t27 11zM371 230q16 0 27.5 -11t11.5 -27t-11.5 -27t-27.5 -11t-27 11t-11 27t11 27t27 11zM154 371q16 0 27 11.5t11 27.5t-11 27t-27 11t-27.5 -11t-11.5 -27t11.5 -27.5t27.5 -11.5zM77 422q10 0 17.5 7.5t7.5 18.5t-7.5 18.5t-18 7.5t-18 -7.5t-7.5 -18.5t7.5 -18.5
t18.5 -7.5z" />
</svg>
