
<svg xmlns="http://www.w3.org/2000/svg" xmlns:xlink="http://www.w3.org/1999/xlink" version="1.1" viewBox="-10 0 522 512">
   <path fill="currentColor"
d="M224 148q0 -16 -12 -41q-8 -18 -21 -39l-12 -17l-11 17q-14 21 -22 39q-12 25 -12 41q0 25 11.5 34.5t34 9.5t33.5 -9.5t11 -34.5zM378 148q0 -16 -12 -41q-8 -18 -22 -39l-11 -17l-12 17q-13 21 -21 39q-12 25 -12 41q0 25 11 34.5t33.5 9.5t34 -9.5t11.5 -34.5z
M230 435v-205q0 -10 -7.5 -17.5t-17.5 -7.5h-51q-11 0 -18.5 7.5t-7.5 17.5v205q0 11 7.5 18.5t18.5 7.5h51q10 0 17.5 -7.5t7.5 -18.5zM384 435v-205q0 -10 -7.5 -17.5t-18.5 -7.5h-51q-10 0 -17.5 7.5t-7.5 17.5v205q0 11 7.5 18.5t17.5 7.5h51q11 0 18.5 -7.5t7.5 -18.5z
M154 282l51 -26v51l-51 26v-51zM307 282l51 -26v51l-51 26v-51zM154 358l51 -25v51l-51 26v-52zM307 358l51 -25v51l-51 26v-52z" />
</svg>
