
<svg xmlns="http://www.w3.org/2000/svg" xmlns:xlink="http://www.w3.org/1999/xlink" version="1.1" viewBox="-10 0 522 512">
   <path fill="currentColor"
d="M486 371v-230q0 -16 -11 -27.5t-27 -11.5h-359q-16 0 -27 11.5t-11 27.5v230q0 16 11 27.5t27 11.5h359q16 0 27 -11.5t11 -27.5zM453 138q6 6 4.5 11.5t-5.5 9.5l-104 96l100 104q7 7 2 13q-3 3 -7.5 3t-7.5 -2l-112 -95l-54 49l-55 -49l-112 95q-3 2 -7.5 2t-6.5 -3
q-5 -6 1 -13l100 -104l-104 -96q-4 -4 -5 -9.5t4 -11.5q11 -10 25 2l160 129l160 -129q14 -12 24 -2z" />
</svg>
