
<svg xmlns="http://www.w3.org/2000/svg" xmlns:xlink="http://www.w3.org/1999/xlink" version="1.1" viewBox="-10 0 522 512">
   <path fill="currentColor"
d="M220 61q12 0 20 4q23 10 34 39q10 26 10 62q14 -19 37 -37q28 -21 50 -21q29 0 52 18q28 24 39 73q-42 -24 -93.5 -24t-84.5 22q15 -4 34 -4q28 0 53 9t34 24.5t10 37t-6.5 40.5t-22.5 29q-3 -41 -29.5 -73.5t-59.5 -32.5q-18 0 -34 10q-42 25 -64 95q-20 64 -20 154
h-128q0 -67 31 -128q28 -54 75 -95q44 -37 91 -53q-24 -4 -47 -4q-82 0 -150 50q14 -53 49 -81q31 -24 71 -24q24 0 46 9t36 24q-11 -39 -43 -58q-26 -15 -61 -15q-29 0 -53 9q17 -24 55 -41.5t69 -17.5zM333 294q0 -16 -11.5 -27t-27.5 -11t-27 11t-11 27t11 27.5t27 11.5
t27.5 -11.5t11.5 -27.5z" />
</svg>
