
<svg xmlns="http://www.w3.org/2000/svg" xmlns:xlink="http://www.w3.org/1999/xlink" version="1.1" viewBox="-10 0 522 512">
   <path fill="currentColor"
d="M317 51l67 77v26h-256v-26l68 -77h121zM256 128q11 0 18.5 -7.5t7.5 -18t-7.5 -18t-18.5 -7.5t-18.5 7.5t-7.5 18t7.5 18t18.5 7.5zM461 435v-307q0 -11 -7.5 -18.5t-18.5 -7.5h-39l14 17v60h-308v-61l14 -16h-39q-11 0 -18.5 7.5t-7.5 18.5v307q0 11 7.5 18.5t18.5 7.5
h358q11 0 18.5 -7.5t7.5 -18.5zM384 230l-51 180h-51l-26 -128l-26 128h-53l-49 -180h51l26 128l25 -128h52l25 128l26 -128h51z" />
</svg>
