
<svg xmlns="http://www.w3.org/2000/svg" xmlns:xlink="http://www.w3.org/1999/xlink" version="1.1" viewBox="-10 0 522 512">
   <path fill="currentColor"
d="M485 114q-19 29 -47 49v12q0 64 -31 124q-32 64 -90 101q-64 42 -146 42q-78 0 -144 -42q13 1 23 1q65 0 116 -40q-30 -1 -54 -19t-33 -46q9 1 17 1q12 0 25 -3q-33 -6 -54 -32t-21 -60v-1q20 11 42 12q-19 -13 -30.5 -33.5t-11.5 -45.5t13 -47q35 44 85.5 70t108.5 28
q-3 -11 -3 -21q0 -39 27.5 -66.5t66.5 -27.5q20 0 38 8t31 22q32 -7 59 -23q-11 34 -41 52q27 -3 54 -15z" />
</svg>
