
<svg xmlns="http://www.w3.org/2000/svg" xmlns:xlink="http://www.w3.org/1999/xlink" version="1.1" viewBox="-10 0 522 512">
   <path fill="currentColor"
d="M205 26v179h51v-51q0 -30 23.5 -53.5t53.5 -23.5v22q23 -22 51 -22v77h26q21 0 36 15t15 36t-15 36t-36 15h-26v154q0 10 -7.5 17.5t-18 7.5t-18 -7.5t-7.5 -17.5v-56q-13 4 -26 4v52q0 10 -7.5 17.5t-18 7.5t-18 -7.5t-7.5 -17.5v-52h-51v52q0 10 -7.5 17.5t-18 7.5
t-18 -7.5t-7.5 -17.5v-52q-13 0 -26 -4v56q0 10 -7.5 17.5t-18 7.5t-18 -7.5t-7.5 -17.5v-103h-26v-25q0 -32 22.5 -54.5t54.5 -22.5h51v-179h26zM333 205q10 0 17.5 -7.5t7.5 -18t-7.5 -18t-18 -7.5t-18 7.5t-7.5 18t7.5 18t18.5 7.5z" />
</svg>
