
<svg xmlns="http://www.w3.org/2000/svg" xmlns:xlink="http://www.w3.org/1999/xlink" version="1.1" viewBox="-10 0 522 512">
   <path fill="currentColor"
d="M455 57q0 19 -13.5 32.5t-33 13.5t-33 -13.5t-13.5 -32.5l-46 45l-18 -18q0 8 -5.5 13.5t-13 5.5t-13 -5.5t-5.5 -13.5l-18 18q8 0 13 5.5t5 13t-5 13t-13 5.5l128 128q0 -7 5.5 -12.5t13 -5.5t13 5.5t5.5 12.5l18 -18q-8 0 -13.5 -5.5t-5.5 -13t5.5 -13t13.5 -5.5
l-16 -16l46 -46q-19 0 -33 -13.5t-14 -32.5t13.5 -32.5t32.5 -14.5zM243 177l-131 130q-19 19 -28 39q-6 11 -11 33t-10 34q-8 21 -25 41l19 19q21 -16 41 -25q12 -5 34 -10t33 -11q20 -9 39 -28l131 -131z" />
</svg>
