
<svg xmlns="http://www.w3.org/2000/svg" xmlns:xlink="http://www.w3.org/1999/xlink" version="1.1" viewBox="-10 0 522 512">
   <path fill="currentColor"
d="M486 410v-333q0 -11 -7.5 -18.5t-17.5 -7.5h-384q-11 0 -18.5 7.5t-7.5 18.5v333q0 10 7.5 17.5t18.5 7.5h384q10 0 17.5 -7.5t7.5 -17.5zM102 102h333v103h-333v-103zM128 128v51h77v-51h-77zM230 128v51h77v-51h-77zM333 128v51h77v-51h-77zM115 256q6 0 9.5 3.5t3.5 9
t-3.5 9.5t-9 4t-9.5 -4t-4 -9.5t4 -9t9 -3.5zM154 256h102v26h-102v-26zM307 256h128v128h-128v-128zM115 307q6 0 9.5 4t3.5 9t-3.5 9t-9 4t-9.5 -4t-4 -9t4 -9t9 -4zM154 307h102v26h-102v-26zM333 307v51h77v-51h-77zM115 358q6 0 9.5 4t3.5 9.5t-3.5 9t-9 3.5t-9.5 -3.5
t-4 -9t4 -9.5t9 -4zM154 358h102v26h-102v-26z" />
</svg>
