
<svg xmlns="http://www.w3.org/2000/svg" xmlns:xlink="http://www.w3.org/1999/xlink" version="1.1" viewBox="-10 0 522 512">
   <path fill="currentColor"
d="M346 179h-180q-16 0 -27 -11t-11 -27t11 -27.5t27 -11.5h41q-2 -7 -2 -12q0 -16 11 -27.5t27 -11.5h26q16 0 27 11.5t11 27.5q0 5 -2 12h41q16 0 27 11.5t11 27.5t-11 27t-27 11zM102 205h308q10 0 17.5 7.5t7.5 18t-7.5 18t-17.5 7.5h-308q-10 0 -17.5 -7.5t-7.5 -18
t7.5 -18t17.5 -7.5zM128 282h256q11 0 18.5 7.5t7.5 18t-7.5 18t-18.5 7.5h-256q-11 0 -18.5 -7.5t-7.5 -18t7.5 -18t18.5 -7.5zM179 358h154q10 0 17.5 7.5t7.5 18.5t-7.5 18.5t-17.5 7.5h-28q2 7 2 12q0 16 -11 27.5t-27 11.5h-26q-16 0 -27 -11.5t-11 -27.5q0 -5 2 -12
h-28q-10 0 -17.5 -7.5t-7.5 -18.5t7.5 -18.5t17.5 -7.5z" />
</svg>
