
<svg xmlns="http://www.w3.org/2000/svg" xmlns:xlink="http://www.w3.org/1999/xlink" version="1.1" viewBox="-10 0 522 512">
   <path fill="currentColor"
d="M325 256q0 -29 -20 -49t-49 -20t-49 20t-20 49t20 49t49 20t49 -20t20 -49zM361 256q0 44 -30.5 74.5t-74.5 30.5t-74.5 -30.5t-30.5 -74.5t30.5 -74.5t74.5 -30.5t74.5 30.5t30.5 74.5zM389 146q0 11 -7 18.5t-18.5 7.5t-18.5 -7.5t-7 -19t7 -18.5t18.5 -7t18.5 8t7 18z
M256 87h-16h-56q-34 2 -48 8t-24.5 17t-14.5 24q-5 14 -7 48q-1 19 -1 56v32q0 37 1 56q2 34 6.5 48t15 24.5t24.5 15t49 6.5q19 1 56 1h30q37 0 56 -1q35 -2 49 -7q27 -12 39 -39q5 -15 7 -50q1 -19 1 -55v-30q0 -37 -1 -56q-2 -35 -6.5 -49t-15 -24.5t-24.5 -14.5
q-14 -7 -49 -9q-20 -1 -57 -1h-14zM461 256v84q0 51 -33 88q-34 33 -88 33h-168q-51 0 -88 -33q-15 -18 -24 -40.5t-9 -47.5v-168q0 -25 9 -47.5t24 -40.5q42 -33 88 -33h168q51 0 88 33q15 18 24 40.5t9 47.5v84z" />
</svg>
