
<svg xmlns="http://www.w3.org/2000/svg" xmlns:xlink="http://www.w3.org/1999/xlink" version="1.1" viewBox="-10 0 522 512">
   <path fill="currentColor"
d="M230 0q-62 0 -115 31t-84 84t-31 115.5t31 115.5t84 84t115.5 31t115.5 -31t84 -84t31 -115.5t-31 -115.5t-84 -84t-116 -31zM305 316q0 7 2.5 11.5t7 5t8.5 -3.5t6 -12l5 2q14 8 20 22.5t2 29.5q-3 13 -13.5 22t-23.5 9q-5 -12 -18 -13q-8 -1 -28 4q-30 7 -45 4
q-12 -3 -21 -11t-13 -20q9 -1 24 -8q8 -4 27.5 -15.5t29.5 -16.5q17 -8 30 -10zM205 289q17 0 30.5 -12t15.5 -29q9 10 8.5 23.5t-10.5 23t-23.5 7.5t-20.5 -13zM282 269q3 4 28 5.5t36 4.5q20 6 26 18q-7 -1 -26 0q-26 2 -37 -2q-20 -5 -26 -26h-1zM249 140v6
q-13 -15 -24.5 -19.5t-16.5 5.5q-2 4 0 9q2 4 8.5 11.5t8.5 12.5q4 8 2 14.5t-7 11.5l-13 6.5t-14 8.5q-8 6 -14 15q-13 22 -6 45q7 27 38 49q-23 -2 -40.5 -17t-24.5 -37q-4 -12 -6 -33q-2 -14 -4 -20q-3 -8 -10 -10q-17 -5 -33 13t-16 40q-11 -11 -14 -26
q-2 -9 -1.5 -27.5t-1.5 -27.5q-3 -15 -14 -26q22 -46 61.5 -75.5t88.5 -38t97 7.5q-21 20 -32.5 46.5t-11.5 55.5z" />
</svg>
