
<svg xmlns="http://www.w3.org/2000/svg" xmlns:xlink="http://www.w3.org/1999/xlink" version="1.1" viewBox="-10 0 532 512">
   <path
d="M512 138l-26 72v0q-20 -7 -39 2t-26.5 29t1.5 39t30 26l-26 73l-386 -138l26 -71q19 7 38.5 -2t26.5 -29t-2 -39t-29 -27l26 -73zM372 224q15 -40 -3.5 -78.5t-58 -52.5t-78 4t-53 58t4 78.5t58 52.5t78 -4t52.5 -58zM307 103q34 12 50 43h-1q-6 -2 -11.5 1t-8 9.5
t1.5 22.5v0q2 16 -2 27q-2 7 -15 24l-20 28l2 -105l10 3q3 1 4 -3t-2 -5l-24 -7l-22 -9q-4 -1 -5.5 2t2.5 5l8 4l1 42l-39 50l2 -105l10 3q3 0 4 -3.5t-2 -4.5l-29 -9q18 -14 41 -17.5t45 4.5zM189 158q7 -18 20 -32l1 128q-18 -19 -24 -44.5t3 -51.5zM293 280l54 -67
q12 -14 17 -29l3 -9q4 23 -4.5 46t-27 39t-42.5 20zM275 198v82l1 2q-16 0 -31 -6q-13 -4 -23 -12zM307 353l53 19q5 17 18.5 27.5t30.5 10.5l1 76h-410v-75q21 0 36 -15t15 -36.5t-15 -36.5t-36 -15v-78h27l-7 21l109 39q-27 29 -27 68q0 43 30 73t72.5 30t72.5 -30t30 -73
v-5zM140 294l37 13q-2 1 -2 4t3 3l10 1l14 40l-20 60l-34 -100l11 -1q4 0 3.5 -4t-4.5 -3l-24 1h-6q5 -8 12 -14zM113 358q0 -19 8 -37l44 120q-24 -11 -38 -33.5t-14 -49.5zM220 322l44 16q3 8 3 15.5t-6 27.5l-10 33zM297 358q0 26 -12.5 47t-33.5 33l28 -81l4 -12l13 5
q1 4 1 8zM179 447l27 -81l29 79q-15 6 -30 6q-12 0 -26 -4z" />
</svg>
