
<svg xmlns="http://www.w3.org/2000/svg" xmlns:xlink="http://www.w3.org/1999/xlink" version="1.1" viewBox="-10 0 522 512">
   <path fill="currentColor"
d="M461 461h-410v-410h410v410zM206 193q5 -3 8.5 -6.5t6.5 -8.5l4 -10l3 -8l1 -9q2 -11 -1 -22.5t-11.5 -19t-21.5 -7.5q-8 0 -15 3t-11 8t-6.5 11t-2.5 13q-1 5 0 14l5 17q1 5 4 10t6.5 9t8.5 6t11 2t11 -2zM410 128v-26h-128v26h128zM410 179v-25h-128v25h128zM195 226
l-35 -22q-16 0 -29.5 8t-21 21.5t-7.5 27.5v32l6 1q6 2 14 4q10 2 19.5 4t26.5 4q14 1 27 1t27 -1l26 -4l21 -4l19 -5v-32q0 -14 -8 -27.5t-21.5 -22t-28.5 -8.5zM410 230v-25h-77v25h77zM410 282v-26h-77v26h77zM410 358v-25h-308v25h308zM410 410v-26h-308v26h308z" />
</svg>
