
<svg xmlns="http://www.w3.org/2000/svg" xmlns:xlink="http://www.w3.org/1999/xlink" version="1.1" viewBox="-10 0 522 512">
   <path fill="currentColor"
d="M309 154l-6 -6q-9 -10 -8.5 -16.5t10.5 -16.5l77 -78q13 -13 18 -14q7 -2 19 10l6 5zM322 165l113 -113q22 30 34 60q19 46 5 77q-9 20 -17 33q-5 8 -16 21t-18 23q-58 66 -154 155q-10 8 -23 19.5t-21 16.5q-13 8 -32 16q-30 11 -77 -7q-30 -12 -61 -33l112 -113l31 41
q6 9 20 2q13 -5 26 -18l21 -22q65 -65 81 -83q13 -13 19 -25q6 -15 -2 -21zM40 422l-5 -5q-11 -11 -9 -19q2 -5 15 -17l77 -77q11 -10 17 -11t16 8l5 5z" />
</svg>
