
<svg xmlns="http://www.w3.org/2000/svg" xmlns:xlink="http://www.w3.org/1999/xlink" version="1.1" viewBox="-10 0 522 512">
   <path fill="currentColor"
d="M384 102h77v384h-410v-384h77v-25q0 -16 11.5 -27.5t27 -11.5t27 11.5t11.5 27.5v25h102v-25q0 -16 11.5 -27.5t27 -11.5t27 11.5t11.5 27.5v25zM154 77v64q0 5 3.5 9t9 4t9 -4t3.5 -9v-64q0 -6 -3.5 -9.5t-9 -3.5t-9 3.5t-3.5 9.5zM333 77v64q0 5 3.5 9t9 4t9 -4t3.5 -9
v-64q0 -6 -3.5 -9.5t-9 -3.5t-9 3.5t-3.5 9.5zM435 461v-256h-358v256h358zM179 230v52h-51v-52h51zM230 230h52v52h-52v-52zM333 282v-52h51v52h-51zM179 307v51h-51v-51h51zM230 307h52v51h-52v-51zM333 358v-51h51v51h-51zM179 384v51h-51v-51h51zM282 435h-52v-51h52v51
zM384 435h-51v-51h51v51z" />
</svg>
