
<svg xmlns="http://www.w3.org/2000/svg" xmlns:xlink="http://www.w3.org/1999/xlink" version="1.1" viewBox="-10 0 522 512">
   <path fill="currentColor"
d="M440 84l4 5q8 7 8 17.5t-8 18.5l-328 328q-7 8 -17.5 8t-18.5 -8l-4 -4q-7 -8 -7 -18.5t7 -17.5l41 -41q-61 -39 -91 -101q31 -63 92.5 -102t137.5 -39q45 0 87 16l61 -62q7 -7 18 -7t18 7zM259 187q-9 10 -9 22t8 21l46 -45q-5 -5 -11 -7l-13 -1q-12 1 -21 10zM61 271
q27 47 79 78l32 -33q-19 -26 -19 -60q0 -41 27 -71q-39 10 -70 32.5t-49 53.5zM400 217l24 -25q40 33 62 79q-31 63 -92.5 102t-137.5 39q-22 0 -47 -5l28 -27l19 1q63 0 115.5 -31t79.5 -79q-18 -31 -49 -53zM257 359l102 -102q0 42 -30 72t-72 30z" />
</svg>
