
<svg xmlns="http://www.w3.org/2000/svg" xmlns:xlink="http://www.w3.org/1999/xlink" version="1.1" viewBox="-10 0 522 512">
   <path fill="currentColor"
d="M461 410h-410v-308h410v308zM180 218q5 -2 9 -6t6 -8l4 -10l3 -9l2 -8q2 -12 -1 -23t-12 -18.5t-22 -7.5q-8 0 -14.5 3t-10.5 8t-6.5 11t-3.5 13v14l5 17q2 5 5 10t6.5 8.5t8 6t10.5 2.5t11 -3zM435 230v-102h-128v102h128zM169 252l-35 -23q-15 0 -29 8.5t-21 21.5
t-7 27v32l5 2q6 2 14 3q11 3 20 4.5t26 3.5q14 2 27 2t28 -2q12 -1 25 -3l21 -5l19 -5v-32q0 -14 -8 -27.5t-21.5 -21.5t-28.5 -8zM435 282v-26h-128v26h128zM435 333v-26h-128v26h128zM435 384v-26h-358v26h358z" />
</svg>
