
<svg xmlns="http://www.w3.org/2000/svg" xmlns:xlink="http://www.w3.org/1999/xlink" version="1.1" viewBox="-10 0 532 512">
   <path fill="currentColor"
d="M512 163l-26 73v-1q-20 -7 -39 2.5t-26.5 29t1.5 39t30 26.5l-26 72l-386 -137l26 -72q19 8 38.5 -1t26.5 -29t-2 -39.5t-29 -26.5l26 -73zM385 309l35 -96q5 -12 -1 -24t-18 -17l-193 -70q-12 -5 -24 1t-17 18l-35 96q-4 13 1.5 25t17.5 16l193 70q6 2 11 2
q10 0 18.5 -5.5t11.5 -15.5zM204 114l192 70q8 3 11.5 10t0.5 14l-35 97q-3 7 -10.5 10.5t-14.5 0.5l-192 -70q-8 -3 -11 -10t-1 -15l35 -96q2 -5 7 -8.5t11 -3.5q3 0 7 1zM379 425q13 10 30 10l1 77h-410v-76q21 0 36 -15t15 -36t-15 -36t-36 -15v-78h27l-7 20l73 27
q-10 3 -16.5 11t-6.5 19v102q0 13 9.5 22.5t22.5 9.5h205q13 0 22.5 -9.5t9.5 -22.5v-45l21 8q5 17 19 27zM83 435v-102q0 -8 6 -13.5t13 -5.5h22l202 72v49q0 8 -5.5 13.5t-13.5 5.5h-205q-7 0 -13 -5.5t-6 -13.5z" />
</svg>
