
<svg xmlns="http://www.w3.org/2000/svg" xmlns:xlink="http://www.w3.org/1999/xlink" version="1.1" viewBox="-10 0 522 512">
   <path fill="currentColor"
d="M307 128v-77q0 -10 -7.5 -17.5t-17.5 -7.5h-52q-10 0 -17.5 7.5t-7.5 17.5v77q0 11 7.5 18.5t17.5 7.5h52q10 0 17.5 -7.5t7.5 -18.5zM256 51q11 0 18.5 7.5t7.5 18t-7.5 18t-18.5 7.5t-18.5 -7.5t-7.5 -18t7.5 -18t18.5 -7.5zM461 384v-205q0 -21 -15 -36t-36 -15h-77v8
q0 18 -12.5 30.5t-30.5 12.5h-68q-18 0 -30.5 -12.5t-12.5 -30.5v-8h-77q-21 0 -36 15t-15 36v205q0 21 15 36t36 15h308q21 0 36 -15t15 -36zM435 230v154h-358v-154h358zM230 282q0 -11 -3.5 -18.5t-9 -7.5t-9 7.5t-3.5 18t3.5 18t9 7.5t9 -7.5t3.5 -17.5zM307 282
q0 -11 -3.5 -18.5t-9 -7.5t-9 7.5t-3.5 18t3.5 18t9 7.5t9 -7.5t3.5 -17.5zM155 313q38 20 101 20t101 -20q-4 19 -33 32t-68 13t-68 -13t-33 -32z" />
</svg>
