
<svg xmlns="http://www.w3.org/2000/svg" xmlns:xlink="http://www.w3.org/1999/xlink" version="1.1" viewBox="-10 0 522 512">
   <path fill="currentColor"
d="M115 159q-31 42 -31 97q0 37 16 72l27 -125q4 -22 4 -28q1 -10 -2.5 -13t-13.5 -3zM218 323q6 -27 -1 -43t-28 -16q-15 0 -28.5 10.5t-17.5 27.5l-7 44q-6 18 2.5 28t22.5 10q22 0 37 -18q13 -16 20 -43zM256 51q-55 0 -102.5 27.5t-75 75t-27.5 102.5t27.5 102.5t75 75
t102.5 27.5t102.5 -27.5t75 -75t27.5 -102.5t-27.5 -102.5t-75 -75t-102.5 -27.5zM256 448q-40 0 -75.5 -14.5t-60.5 -41.5q-4 -5 -12.5 -15.5t-12.5 -15.5q-31 -53 -31 -105t26 -96t70 -70t96 -26t96 26t70 70t26 96t-26 96t-70 70t-96 26zM353 323q6 -27 -1 -43t-27 -16
q-16 0 -29 10.5t-17 27.5l-10 44q-4 19 4.5 30t23.5 11q20 -2 35 -20t21 -44zM256 84q-38 0 -72.5 16t-58.5 43l17 -2q23 -4 30 -5q5 0 5 5t-26 123v0q30 -18 46 -18q30 0 49 23l13 -62q5 -22 6 -31.5t-2.5 -13t-14.5 -3.5q-7 0 -7 -7t7 -9l28 -3q24 -3 31 -4q5 0 5 5
l-25 123q22 -18 48 -18q33 0 47.5 21.5t6.5 55.5q-6 32 -34 54t-63 22q-24 0 -40 -11q-15 -10 -19 -24q-28 31 -72 35q45 29 95 29q47 0 86 -23.5t62.5 -62.5t23.5 -86t-23.5 -86t-62.5 -62.5t-86 -23.5z" />
</svg>
