
<svg xmlns="http://www.w3.org/2000/svg" xmlns:xlink="http://www.w3.org/1999/xlink" version="1.1" viewBox="-10 0 522 512">
   <path fill="currentColor"
d="M465 152q8 30 8 61q-1 28 -9 53t-23.5 41.5t-35.5 22.5q-4 2 -10 2q-2 0 -4 0.5t-6 0.5h-174l57 141q0 4 -3.5 8t-9.5 4h-77q-6 0 -9.5 -4t-2.5 -8l-26 -141h-31l-1 -1q-9 1 -19.5 -3t-19.5 -13q-21 -19 -28.5 -47.5t0.5 -56.5q7 -24 27 -33l233 -140q3 -2 5 -3.5t6 -3.5
t12 -4q20 -6 42 1t41 24.5t34.5 43t23.5 55.5zM399 305h-1q15 -4 27 -18q22 -26 22 -78q0 -23 -7 -50q-13 -51 -46 -83q-15 -15 -31.5 -21t-31.5 -2q-31 9 -44 51q-12 40 2.5 95t45.5 84q32 30 64 22zM334 124q7 -2 15 1q17 7 27 26q10 21 10 45q0 11 -3 21q-8 20 -22 24
q-6 2 -14 -1t-15 -10q-15 -14 -20 -38q-6 -21 1 -44q2 -9 8 -15.5t13 -8.5z" />
</svg>
