
<svg xmlns="http://www.w3.org/2000/svg" xmlns:xlink="http://www.w3.org/1999/xlink" version="1.1" viewBox="-10 0 522 512">
   <path fill="currentColor"
d="M230 0q-62 0 -115 31t-84 84t-31 115.5t31 115.5t84 84t115.5 31t115.5 -31t84 -84t31 -115.5t-31 -115.5t-84 -84t-116 -31zM422 166q-5 17 -16.5 31t-27.5 21q-9 -32 -31 -57.5t-53 -38.5q5 -17 20 -28q-9 -6 -18.5 -6t-15.5 8q-9 11 -5 28q2 9 10 22v1v4
q-22 -13 -32 -37q-37 -1 -70 18q-4 -22 4 -43q14 1 27 -4.5t22 -16.5q14 -15 -15 -40h9q53 0 100 26q26 19 41 47.5t17 61.5q4 0 11.5 -8t11.5 -16q7 13 11 27zM230 431q-19 -20 -22 -42q-2 -13 3 -38q4 -19 4 -28q-1 -15 -10 -26q-8 -7 -19 -10q-6 -2 -20.5 -4t-21.5 -5
q-12 -4 -19 -13q-5 -28 4.5 -55t32.5 -45q7 -6 34 -11q29 -4 55 -1q33 3 50 17q32 29 42 71q18 1 34 -8q5 36 -19 80q-21 39 -57.5 72t-70.5 46zM132 54q15 -6 30.5 -1.5t24.5 17.5q-16 15 -38 19q1 -11 5 -22z" />
</svg>
