
<svg xmlns="http://www.w3.org/2000/svg" xmlns:xlink="http://www.w3.org/1999/xlink" version="1.1" viewBox="-10 0 522 512">
   <path fill="currentColor"
d="M396 160q34 18 38.5 55t-21.5 72q-15 22 -40.5 35t-47.5 11l-68 128h-27l-67 -128q-22 3 -49 -10.5t-42 -35.5q-26 -35 -21.5 -72.5t39.5 -54.5q17 -9 36 -8q0 16 2 31q5 33 25.5 64.5t47.5 47.5q-7 22 -22 32l51 97v-144q-26 -8 -48.5 -37.5t-28 -63.5t4.5 -63.5t32 -47
t53 -17.5t53.5 17.5t32 47t4.5 63.5t-28 63.5t-49 37.5v147l53 -98q-16 -8 -25 -33q28 -16 48.5 -48t25.5 -65q2 -15 2 -31q19 -1 36 8z" />
</svg>
