
<svg xmlns="http://www.w3.org/2000/svg" xmlns:xlink="http://www.w3.org/1999/xlink" version="1.1" viewBox="-10 0 522 512">
   <path fill="currentColor"
d="M51 486h410q10 0 17.5 -7.5t7.5 -17.5v-410q0 -10 -7.5 -17.5t-17.5 -7.5h-410q-10 0 -17.5 7.5t-7.5 17.5v410q0 10 7.5 17.5t17.5 7.5zM102 77q11 0 18.5 7.5t7.5 18t-7.5 18t-18 7.5t-18 -7.5t-7.5 -18t7.5 -18t17.5 -7.5zM435 77v51h-281v-51h281zM102 179
q11 0 18.5 7.5t7.5 18t-7.5 18t-18 7.5t-18 -7.5t-7.5 -18t7.5 -18t17.5 -7.5zM435 179v51h-281v-51h281zM102 282q11 0 18.5 7.5t7.5 18t-7.5 18t-18 7.5t-18 -7.5t-7.5 -18t7.5 -18t17.5 -7.5zM435 282v51h-281v-51h281zM102 384q11 0 18.5 7.5t7.5 18t-7.5 18t-18 7.5
t-18 -7.5t-7.5 -18t7.5 -18t17.5 -7.5zM435 384v51h-281v-51h281z" />
</svg>
