
<svg xmlns="http://www.w3.org/2000/svg" xmlns:xlink="http://www.w3.org/1999/xlink" version="1.1" viewBox="-10 0 522 512">
   <path fill="currentColor"
d="M156 243v-28q0 -9 -4 -13.5t-14 -6.5q12 -2 16.5 -7t4.5 -16v-29q0 -7 3 -9.5t15 -2.5h7v-13h-15q-18 0 -25.5 5.5t-7.5 19.5q0 7 1 16.5t1 14.5t-5.5 9t-17.5 4v15q12 0 17.5 4t5.5 9t-1 14.5t-1 16.5q0 15 7.5 20t25.5 5h13v-15h-8q-10 0 -14 -2.5t-4 -10.5zM422 356
q-20 -21 -66 -51q-28 -29 -39 -36q23 -37 20 -80q-2 -40 -25 -74t-59 -52q-39 -18 -80.5 -11.5t-72.5 33.5q-29 25 -41.5 62.5t-5.5 74.5q8 40 37 70q32 36 82 43.5t94 -15.5q28 28 41 44l14 18l18 24q11 13 22 22l2 1q16 14 26 20q16 10 31 12q20 2 31.5 -9.5t11.5 -31.5
q-3 -26 -41 -64zM195 297q-43 0 -73 -30t-30 -72.5t30 -72.5t72.5 -30t72.5 30t30 72.5t-30 72.5t-72 30zM248 174q0 -5 1.5 -14.5t1.5 -16.5q0 -14 -7.5 -19.5t-25.5 -5.5h-13v13h7q10 0 14 2.5t4 9.5v29q0 9 4.5 13.5t13.5 6.5q-11 4 -15.5 9t-4.5 14v28q2 8 -1.5 10.5
t-14.5 2.5h-7v15h13q18 0 25.5 -5t7.5 -20q0 -7 -1.5 -16.5t-1.5 -14.5t5.5 -9t17.5 -4v-15q-12 0 -17.5 -4t-5.5 -9z" />
</svg>
