
<svg xmlns="http://www.w3.org/2000/svg" xmlns:xlink="http://www.w3.org/1999/xlink" version="1.1" viewBox="-10 0 522 512">
   <path fill="currentColor"
d="M384 225q3 -2 10.5 -2t9.5 2q6 5 6 8q0 5 -3 8q0 2 -5 7l-41 41v18h72v-18h-44l31 -30q2 -3 8 -13q2 -5 2 -13q0 -5 -5 -15q-2 -4 -7 -8l-3 -3q-11 -5 -18 -2q-8 0 -13 2q-1 0 -5 1.5t-5 1.5q-5 2 -13 10l13 10q5 -5 10 -5zM428 392q-8 -8 -18 -8q12 -4 15 -10
q5 -5 5 -16v0q0 -14 -10 -18q-12 -7 -26 -7q-19 0 -33 10l10 15q5 -5 13 -5q1 0 5 -1t5 -1q16 0 16 13q0 5 -6 10q-5 2 -17 2h-8v18h8q12 0 20 3q4 2 4.5 4t0.5 6q0 8 -5 13q-10 5 -15 5q-11 0 -16 -3q-7 0 -12 -5v18q10 5 29.5 5t30.5 -7t11 -23q0 -11 -7 -18zM384 108
q4 0 8 -8v79h20v-102h-18l-33 25l10 13zM102 154h231v-26h-231v26zM102 282h231v-26h-231v26zM102 410h231v-26h-231v26z" />
</svg>
