
<svg xmlns="http://www.w3.org/2000/svg" xmlns:xlink="http://www.w3.org/1999/xlink" version="1.1" viewBox="-10 0 529 512">
   <path fill="currentColor"
d="M348 131l-79 79l46 46l79 -79q6 -6 4 -17.5t-11.5 -21t-20 -11.5t-18.5 4zM356 8q-11 -7 -132 89q-61 48 -119 98l-24 -14q-27 -15 -46 -23q-27 -12 -32 -7q-8 6 46 68q27 31 56 60l69 -69q78 -78 125 -129q65 -70 57 -73zM497 246q-10 -10 -21.5 -12t-17.5 4l-79 79
l46 47l79 -82q6 -4 4 -15.5t-11 -20.5zM197 220q-12 13 -21 45q-7 28 -7 52v98l-31 30q-11 12 -11 27.5t11.5 27t26.5 11.5t27 -12l31 -31h97q25 0 52 -7q30 -8 43 -21l30 -20l-227 -228z" />
</svg>
