
<svg xmlns="http://www.w3.org/2000/svg" xmlns:xlink="http://www.w3.org/1999/xlink" version="1.1" viewBox="-10 0 522 512">
   <path fill="currentColor"
d="M461 90q0 11 -6.5 21t-17.5 14v336h-386l108 -173q-5 -9 -5 -19q0 -16 11 -27.5t27 -11.5t27 11.5t11 27.5q0 4 -1 9l37 16q12 -12 28 -12q6 0 13 2l92 -164q-15 -12 -15 -30q0 -16 11 -27.5t27 -11.5q7 0 14 3l1 -3v3q11 5 17.5 14.5t6.5 21.5zM412 435v-285l-85 151
q6 9 6 19q0 16 -11.5 27t-27.5 11t-27 -11t-11 -27v-2l-41 -18q-11 7 -23 7q-6 0 -13 -2l-82 130h315z" />
</svg>
