
<svg xmlns="http://www.w3.org/2000/svg" xmlns:xlink="http://www.w3.org/1999/xlink" version="1.1" viewBox="-10 0 522 512">
   <path fill="currentColor"
d="M461 307h-56q-7 27 -21 50l40 39l-54 54l-40 -40q-22 14 -48 21v55h-77v-55q-26 -7 -49 -21l-40 40l-54 -54l40 -40q-14 -23 -21 -49h-55v-76h55q6 -26 21 -49l-40 -40l54 -54l39 40q22 -14 50 -21v-56h77v56q26 6 48 20l40 -39l54 54l-39 40q14 23 20 49h56v76zM243 346
q32 0 54.5 -22.5t22.5 -54.5t-22.5 -54.5t-54.5 -22.5t-54.5 22.5t-22.5 54.5t22.5 54.5t54.5 22.5z" />
</svg>
