
<svg xmlns="http://www.w3.org/2000/svg" xmlns:xlink="http://www.w3.org/1999/xlink" version="1.1" viewBox="-10 0 522 512">
   <path fill="currentColor"
d="M256 51l14 8q17 10 37 18q28 11 57 17q36 8 71 8q0 126 -46 218q-33 67 -87 110q-26 22 -46 31l-8 -4q-10 -5 -20 -13q-15 -10 -29 -22q-17 -16 -33 -35q-18 -22 -32 -47q-17 -30 -29 -63q-14 -37 -20 -78q-8 -46 -8 -97q64 0 128 -25q32 -13 51 -26v0zM256 256h128l4 -6
q5 -8 9 -20q5 -16 9 -39q4 -28 4 -63l-35 -8q-39 -9 -68 -19q-40 -13 -51 -24v179h-128q9 35 31 71q17 29 43 57q18 20 38 38l16 13v-179z" />
</svg>
