
<svg xmlns="http://www.w3.org/2000/svg" xmlns:xlink="http://www.w3.org/1999/xlink" version="1.1" viewBox="-10 0 522 512">
   <path fill="currentColor"
d="M51 472q18 16 96 -18q70 -31 145 -82q77 -53 96 -85q13 -22 0 -55q-11 -29 -39 -58q14 -10 31 -2q10 4 30 21q16 14 25 18q13 7 24 1.5t17 -21.5t0 -27q-7 -16 -31 -23q-13 -4 -44 -7l-12 -1q23 -6 44 -20q28 -18 29 -38q1 -18 -17 -34t-35.5 -14t-30.5 24q-8 13 -18 42
l-4 11q-4 -57 -25 -75q-13 -11 -26.5 -10t-23 12t-10.5 25q0 9 8 20q5 6 19 18q18 16 23 25q8 15 0 31q-31 -24 -61 -33q-33 -9 -54 3q-18 12 -41 44q43 45 79 69q4 3 4.5 7.5t-2 8.5t-7 5t-8.5 -2q-36 -24 -80 -69q-18 27 -34 57q40 40 71 62q4 2 5 7t-1.5 8.5t-7.5 4.5
t-9 -1q-30 -21 -69 -60q-37 72 -54 131q-18 65 -2 80z" />
</svg>
