
<svg xmlns="http://www.w3.org/2000/svg" xmlns:xlink="http://www.w3.org/1999/xlink" version="1.1" viewBox="-10 0 522 512">
   <path fill="currentColor"
d="M307 230v-153q0 -21 -15 -36t-36 -15t-36 15t-15 36v153q0 22 15 37t36 15t36 -15.5t15 -36.5zM410 230q0 57 -36.5 99.5t-91.5 52.5v53h51q11 0 18 7.5t7 18t-7 18t-18 7.5h-154q-10 0 -17.5 -7.5t-7.5 -18t7.5 -18t17.5 -7.5h51v-53q-54 -10 -91 -52.5t-37 -99.5
q0 -10 7.5 -17.5t18.5 -7.5t18.5 7.5t7.5 17.5q0 43 30 73t72 30t72 -30t30 -73q0 -10 7.5 -17.5t18.5 -7.5t18.5 7.5t7.5 17.5z" />
</svg>
