
<svg xmlns="http://www.w3.org/2000/svg" xmlns:xlink="http://www.w3.org/1999/xlink" version="1.1" viewBox="-10 0 522 512">
   <path fill="currentColor"
d="M256 67q16 0 27 11t11 27t-11 27.5t-27 11.5t-27 -11.5t-11 -27.5t11 -27t27 -11zM87 188q0 -7 44 -12q31 -4 81 -6l44 -1l44 1q50 2 81 6q44 5 44 12.5t-30 16.5q-21 7 -55 14l-29 5l10 55q12 62 17 101q7 56 0 59q-10 4 -47 -64q-19 -34 -35 -69v0l-18 36
q-20 40 -35 65q-21 35 -28 32q-10 -4 7 -110q9 -53 20 -105v0l-30 -5q-34 -7 -55 -14q-30 -9 -30 -17z" />
</svg>
