
<svg xmlns="http://www.w3.org/2000/svg" xmlns:xlink="http://www.w3.org/1999/xlink" version="1.1" viewBox="-10 0 522 512">
   <path fill="currentColor"
d="M349 74q50 25 79 71t32.5 100.5t-22 104t-71.5 78.5t-100.5 32.5t-103.5 -22.5q-36 -18 -61 -47t-38 -65l42 -27q9 31 29 56t50 41q37 19 79 16.5t77 -25t54.5 -60t17 -79.5t-25 -77t-60 -54.5t-79.5 -17t-77 25t-54 60.5l48 24l-127 79l-10 -149l46 24q25 -50 71 -79
t100.5 -32t103.5 22zM238 274q-8 -7 -8 -18l1 -5v0l25 -123l25 123l77 82l-115 -54l1 -1q-4 -2 -6 -4z" />
</svg>
