
<svg xmlns="http://www.w3.org/2000/svg" xmlns:xlink="http://www.w3.org/1999/xlink" version="1.1" viewBox="-10 0 522 512">
   <path fill="currentColor"
d="M311 107q35 36 40 85.5t-22 90.5l9 8q9 7 21 15l17 12q16 12 24 20q13 13 22 26t14.5 27t5 26t-9 20t-21 9t-25.5 -4.5t-26.5 -15t-25.5 -21.5q-9 -9 -20 -24l-26 -37q-6 -8 -12 -13q-40 21 -85.5 14.5t-78.5 -39.5q-27 -27 -36.5 -63.5t0 -72.5t36.5 -63t63 -36.5
t72.5 0t63.5 36.5zM275 270q26 -26 26 -63.5t-26.5 -63.5t-63.5 -26t-63 26t-26 63.5t26 63.5t63 26t64 -26z" />
</svg>
