
<svg xmlns="http://www.w3.org/2000/svg" xmlns:xlink="http://www.w3.org/1999/xlink" version="1.1" viewBox="-10 0 522 512">
   <path fill="currentColor"
d="M461 435v-358q0 -11 -7.5 -18.5t-18.5 -7.5h-358q-11 0 -18.5 7.5t-7.5 18.5v358q0 11 7.5 18.5t18.5 7.5h358q11 0 18.5 -7.5t7.5 -18.5zM435 435h-358v-358h358v358zM122 102h268q8 0 14 6t6 14v32h-26v76h26v52h-26v76h26v32q0 8 -6 14t-14 6h-268q-8 0 -14 -6t-6 -14
v-268q0 -8 6 -14t14 -6zM333 256q0 -42 -30 -72t-72.5 -30t-72.5 30t-30 72t30 72t72.5 30t72.5 -30t30 -72zM230 179l20 30q14 6 23 18.5t9 28.5q0 21 -15 36t-36.5 15t-36.5 -15t-15 -36q0 -16 9 -28.5t23 -18.5z" />
</svg>
