
<svg xmlns="http://www.w3.org/2000/svg" xmlns:xlink="http://www.w3.org/1999/xlink" version="1.1" viewBox="-10 0 522 512">
   <path fill="currentColor"
d="M469 91q1 -3 1 -5q1 -8 0 -14q-2 -9 -9 -15q-8 -9 -20 -8q-7 0 -11 1v0q-11 6 -47 29q-44 28 -80 55q-47 35 -69 59q-12 13 -23 37q-11 26 -14 48q-3 26 8.5 38t37.5 10q23 -2 48.5 -13t36.5 -22q24 -24 59 -72q27 -37 54 -81q23 -36 28 -47zM36 452q22 -14 34 -34
q7 -11 15 -34q6 -18 11 -27q9 -14 23 -24q18 -13 40 -11.5t38 18.5q9 9 12 26t-0.5 34.5t-15.5 28.5q-28 27 -73 32q-40 4 -84 -9z" />
</svg>
