
<svg xmlns="http://www.w3.org/2000/svg" xmlns:xlink="http://www.w3.org/1999/xlink" version="1.1" viewBox="-10 0 522 512">
   <path fill="currentColor"
d="M307 51l103 103v307h-308v-410h205zM282 154v-77h-154v77h154zM205 205v-26h-77v26h77zM282 205v-26h-52v26h52zM384 205v-26h-77v26h77zM205 256v-26h-77v26h77zM282 256v-26h-52v26h52zM384 256v-26h-77v26h77zM205 307v-25h-77v25h77zM282 307v-25h-52v25h52zM384 307
v-25h-77v25h77zM205 358v-25h-77v25h77zM282 358v-25h-52v25h52zM384 358v-25h-77v25h77zM205 410v-26h-77v26h77zM282 410v-26h-52v26h52z" />
</svg>
