
<svg xmlns="http://www.w3.org/2000/svg" xmlns:xlink="http://www.w3.org/1999/xlink" version="1.1" viewBox="-10 0 532 512">
   <path fill="currentColor"
d="M0 77h512v307h-19q0 -34 -24.5 -58.5t-58.5 -24.5q-25 0 -45 13.5t-31 35.5q-10 -4 -20 -4q-19 0 -33.5 10.5t-20.5 27.5h-260v-307zM214 156q-2 7 -2.5 13t0.5 12l4 16q1 3 3.5 7.5t6 8.5t8 6.5t10 2.5t10 -2.5t8 -5.5t6 -7.5t4 -9t2.5 -8.5l1 -8q2 -10 -0.5 -20.5
t-10.5 -17.5t-21 -7q-7 0 -13 3t-9.5 7t-6.5 10zM329 311v-29q0 -13 -7.5 -25.5t-19.5 -20t-26 -7.5l-32 21l-33 -21q-14 0 -26 8t-19 20t-7 25v29l12 3l24 6q8 1 23 2.5t25.5 1.5t25.5 -1.5t23 -2.5l17 -4zM410 314q29 0 49.5 20.5t20.5 49.5t-20.5 49.5t-49 20.5
t-48.5 -19q9 -15 9 -32q0 -14 -6.5 -27t-18.5 -20q8 -19 25.5 -30.5t38.5 -11.5zM269 403q0 -18 13 -31.5t31.5 -13.5t31.5 13.5t13 32t-13 31.5t-31.5 13t-31.5 -13t-13 -32z" />
</svg>
