
<svg xmlns="http://www.w3.org/2000/svg" xmlns:xlink="http://www.w3.org/1999/xlink" version="1.1" viewBox="-10 0 522 512">
   <path fill="currentColor"
d="M410 102h50q11 0 18.5 8t7.5 19v331q0 11 -7.5 18.5t-18.5 7.5h-331q-11 0 -19 -7.5t-8 -18.5v-50h-50q-11 0 -18.5 -8t-7.5 -19v-331q0 -11 7.5 -18.5t18.5 -7.5h331q11 0 19 7.5t8 18.5v50zM77 358h281v-281h-281v281zM205 141q0 -16 -11.5 -27.5t-27.5 -11.5t-27 11.5
t-11 27.5t11 27t27 11t27.5 -11t11.5 -27zM256 256q2 -10 5 -20q6 -24 14 -44q11 -28 24 -44q16 -20 34 -20v205h-231v-154q18 0 30 12q10 10 15 27q4 12 6 26l1 12l3 -13q6 -15 16 -25q13 -13 32 -13q27 0 41 25q8 13 10 26v0zM435 435v-281h-25v229q0 11 -8 19t-19 8h-229
v25h281z" />
</svg>
