
<svg xmlns="http://www.w3.org/2000/svg" xmlns:xlink="http://www.w3.org/1999/xlink" version="1.1" viewBox="-10 0 522 512">
   <path fill="currentColor"
d="M307 51l103 103v307h-308v-410h205zM307 154h77l-77 -77v77zM205 90v51l46 -26zM282 128l-46 26l46 25v-51zM205 166v52l46 -26zM282 205l-46 25l46 26v-51zM205 243v51l46 -25zM282 282l-46 25l46 26v-51zM243 435q17 0 29 -12.5t10 -29.5q-2 -9 -13 -41l-51 -28l-6 27
q-6 30 -7 42q-2 15 10 28.5t28 13.5zM243 374q8 0 14 5.5t6 14t-6 14t-14 5.5t-13.5 -5.5t-5.5 -14t5.5 -14t13.5 -5.5z" />
</svg>
