<svg xmlns="http://www.w3.org/2000/svg" xmlns:xlink="http://www.w3.org/1999/xlink" version="1.1" viewBox="-10 0 522 512">
   <path fill="currentColor"
d="M449 263q22 23 22 55t-22.5 54.5t-54 22.5t-54.5 -23l-8 -13q0 38 -12 66q-9 21 -27 37q-9 8 -28 19l-9 5l-11 -6q-18 -12 -28 -20q-16 -16 -25 -37q-12 -27 -12 -64l-8 13q-23 23 -54.5 23t-54 -22.5t-22.5 -54.5t22 -55l16 -10q20 -13 38 -23q-35 -47 -35 -105
q0 -12 2 -26q5 34 21.5 63t42.5 50q14 -7 33 -14t28 -9h-4q-21 0 -36 -15t-15 -36t15 -36t36 -15v-13q0 -6 3.5 -9.5t9 -3.5t9 3.5t3.5 9.5v13h52v-13q0 -6 3.5 -9.5t9 -3.5t9 3.5t3.5 9.5v13q21 0 36 15t15 36t-15 36t-36 15h-4q9 2 28.5 9.5t32.5 13.5q26 -21 43 -50
t21 -63q2 14 2 26q0 58 -34 105q27 16 53 33v0zM218 163q9 0 17 -7.5t8 -18t-7.5 -18t-18 -7.5t-18 7.5t-7.5 18t7.5 18t18.5 7.5zM294 112q-10 0 -17.5 7.5t-7.5 18t7.5 18t18 7.5t18 -7.5t7.5 -18t-7.5 -18t-18.5 -7.5zM236 259q-5 4 -5 10t3.5 9.5t8.5 3.5h26
q5 0 8.5 -3.5t3.5 -9t-5 -10.5q-3 -3 -7 -3h-26q-4 0 -7 3zM307 320q0 -6 -4.5 -9.5t-8.5 -3.5h-76q-4 0 -8.5 4t-4.5 9t3.5 9t9.5 4h76q6 0 9.5 -4t3.5 -9zM218 384h76q6 0 9.5 -3.5t3.5 -9t-3.5 -9.5t-9.5 -4h-76q-6 0 -9.5 4t-3.5 9.5t3.5 9t9.5 3.5zM243 435h26
q5 0 9 -3.5t4 -9t-4 -9t-9 -3.5h-26q-5 0 -9 3.5t-4 9t4 9t9 3.5z" />
</svg>
