
<svg xmlns="http://www.w3.org/2000/svg" xmlns:xlink="http://www.w3.org/1999/xlink" version="1.1" viewBox="-10 0 522 512">
   <path fill="currentColor"
d="M410 333q-25 0 -44.5 14t-27.5 37h-108q0 -25 -12 -46l181 -187q4 0 12 1.5t11 1.5q27 0 45.5 -19t18.5 -45.5t-18.5 -45t-45 -18.5t-45.5 18.5t-19 45.5q0 10 6 25l-180 185q-21 -18 -56 -18v-108q23 -8 37 -27.5t14 -44.5q0 -32 -22 -54t-54.5 -22t-54.5 22t-22 54
q0 25 14 44.5t37 27.5v120q-23 14 -37 37.5t-14 49.5q0 43 30 73t72 30q29 0 52 -14t35 -37h120q8 21 28 36t44 15q31 0 54 -22.5t23 -54.5q2 -30 -20.5 -52t-53.5 -22z" />
</svg>
