
<svg xmlns="http://www.w3.org/2000/svg" xmlns:xlink="http://www.w3.org/1999/xlink" version="1.1" viewBox="-10 0 522 512">
   <path fill="currentColor"
d="M384 102h77v359h-410v-359h77v-25q0 -16 11 -27.5t27 -11.5t27.5 11.5t11.5 27.5v25h102v-25q0 -16 11.5 -27.5t27.5 -11.5t27 11.5t11 27.5v25zM154 77v64q0 5 3.5 9t9 4t9 -4t3.5 -9v-64q0 -6 -3.5 -9.5t-9 -3.5t-9 3.5t-3.5 9.5zM333 77v64q0 5 3.5 9t9 4t9 -4t3.5 -9
v-64q0 -6 -3.5 -9.5t-9 -3.5t-9 3.5t-3.5 9.5zM435 435v-230h-358v230h358zM179 410v-180h-51v180h51zM282 410v-180h-52v180h52zM384 410v-180h-51v180h51z" />
</svg>
