
<svg xmlns="http://www.w3.org/2000/svg" xmlns:xlink="http://www.w3.org/1999/xlink" version="1.1" viewBox="-10 0 522 512">
   <path fill="currentColor"
d="M77 512h358v-512h-358v512zM179 77h-51v-51h51v51zM282 77h-52v-51h52v51zM384 77h-51v-51h51v51zM179 154h-51v-52h51v52zM282 154h-52v-52h52v52zM384 154h-51v-52h51v52zM179 230h-51v-51h51v51zM282 230h-52v-51h52v51zM384 230h-51v-51h51v51zM179 307h-51v-51h51
v51zM282 307h-52v-51h52v51zM384 307h-51v-51h51v51zM282 486h-154v-153h154v153zM384 384h-51v-51h51v51zM384 461h-51v-51h51v51z" />
</svg>
