
<svg xmlns="http://www.w3.org/2000/svg" xmlns:xlink="http://www.w3.org/1999/xlink" version="1.1" viewBox="-10 0 522 512">
   <path fill="currentColor"
d="M333 282v-180q0 -10 -7.5 -17.5t-18.5 -7.5h-43l-34 -51h-102l-34 51h-43q-10 0 -17.5 7.5t-7.5 17.5v180q0 10 7.5 17.5t17.5 7.5h256q11 0 18.5 -7.5t7.5 -17.5zM179 115q27 0 45.5 19t18.5 45.5t-18.5 45t-45 18.5t-45.5 -18.5t-19 -45t19 -45.5t45 -19zM358 154h128
v268q0 27 -18.5 45.5t-45 18.5t-45.5 -18.5t-19 -45t19 -45.5t45 -19q6 0 13 2v-130h-77v-76zM256 360v-27h51v89q0 27 -18.5 45.5t-45 18.5t-45.5 -18.5t-19 -45t19 -45.5t45 -19q6 0 13 2z" />
</svg>
