
<svg xmlns="http://www.w3.org/2000/svg" xmlns:xlink="http://www.w3.org/1999/xlink" version="1.1" viewBox="-10 0 532 512">
   <path fill="currentColor"
d="M504 241q-38 -66 -104.5 -103.5t-143.5 -37.5t-143.5 37.5t-104.5 103.5l-8 15l8 15q38 66 104.5 103.5t143.5 37.5t143.5 -37.5t104.5 -103.5l8 -15zM256 361q-59 0 -111.5 -28.5t-85.5 -76.5q25 -38 63 -64t83 -36q-18 12 -28.5 32t-10.5 42q0 37 27 63.5t63 26.5
t63 -26.5t27 -63.5q0 -22 -10.5 -42t-28.5 -32q45 10 83 36t63 64q-33 48 -85.5 76.5t-111.5 28.5z" />
</svg>
