
<svg xmlns="http://www.w3.org/2000/svg" xmlns:xlink="http://www.w3.org/1999/xlink" version="1.1" viewBox="-10 0 522 512">
   <path fill="currentColor"
d="M219 78q7 3 5 10q-1 4 -9 15q-12 18 -14 28q-3 16 15 27q12 8 35 -8q14 -9 43 -35q26 -24 36 -30q23 -12 46 -7q30 6 44.5 38.5t9.5 86.5q-5 58 -30 109q-29 58 -76 88q-50 31 -105.5 32.5t-101.5 -25t-67 -75.5q-19 -42 -8 -93q9 -47 39 -88.5t67 -61.5q38 -22 71 -11z
M250 243q7 16 25.5 15.5t39 -13.5t29.5 -31q11 -22 3 -42q-5 -14 -23 -11t-38 17.5t-31 31.5q-11 19 -5 33z" />
</svg>
