
<svg xmlns="http://www.w3.org/2000/svg" xmlns:xlink="http://www.w3.org/1999/xlink" version="1.1" viewBox="-10 0 522 512">
   <path fill="currentColor"
d="M230 0q-62 0 -115 31t-84 84t-31 115.5t31 115.5t84 84t115.5 31t115.5 -31t84 -84t31 -115.5t-31 -115.5t-84 -84t-116 -31zM319 306q0 76 -104 120q2 -34 -6 -56q-6 -19 -20 -31q-9 -7 -27 -17q-12 -7 -17 -11q-8 -6 -12 -13q3 -21 15 -38.5t31 -26.5q-61 -10 -107 -51
q2 19 17 31q-31 -12 -50 -39q19 -62 70 -101.5t116 -42.5q-12 20 -19 45q-7 28 -3 52q4 29 22 46q-13 2 -27 -4q-8 -4 -22 -13.5t-20 -10.5q-10 -4 -18 3q-14 14 -7.5 29.5t32 29t65 20.5t60.5 19q19 10 26 26q5 12 5 34zM353 204q-10 -35 44 -81q26 38 31.5 83t-10.5 88
q-7 -17 -18 -31q-7 -9 -20 -23q-12 -11 -16 -17q-8 -10 -11 -20v1z" />
</svg>
