
<svg xmlns="http://www.w3.org/2000/svg" xmlns:xlink="http://www.w3.org/1999/xlink" version="1.1" viewBox="-10 0 522 512">
   <path fill="currentColor"
d="M96 410h320q21 -27 33 -60t12 -68q0 -56 -27.5 -103t-74.5 -74.5t-103 -27.5t-103 27.5t-74.5 74.5t-27.5 103q0 35 12 68t33 60zM256 102q11 0 18.5 7.5t7.5 18.5t-7.5 18.5t-18.5 7.5t-18.5 -7.5t-7.5 -18.5t7.5 -18.5t18.5 -7.5zM154 154q10 0 17.5 7.5t7.5 18
t-7.5 18t-18 7.5t-18 -7.5t-7.5 -18t7.5 -18t18.5 -7.5zM358 154q11 0 18.5 7.5t7.5 18t-7.5 18t-18 7.5t-18 -7.5t-7.5 -18t7.5 -18t17.5 -7.5zM221 296l86 -117v154q0 21 -15 36t-36 15t-36 -15t-15 -36.5t16 -36.5zM102 256q11 0 18.5 7.5t7.5 18t-7.5 18t-18 7.5
t-18 -7.5t-7.5 -18t7.5 -18t17.5 -7.5zM410 256q10 0 17.5 7.5t7.5 18t-7.5 18t-18 7.5t-18 -7.5t-7.5 -18t7.5 -18t18.5 -7.5zM282 333q0 -11 -7.5 -18.5t-18.5 -7.5t-18.5 7.5t-7.5 18t7.5 18t18.5 7.5t18.5 -7.5t7.5 -17.5z" />
</svg>
