
<svg xmlns="http://www.w3.org/2000/svg" xmlns:xlink="http://www.w3.org/1999/xlink" version="1.1" viewBox="-10 0 522 512">
   <path fill="currentColor"
d="M486 51v154h-460v-154h460zM461 179v-102h-410v102h410zM128 102v52h-51v-52h51zM205 102v52h-51v-52h51zM282 102v52h-52v-52h52zM358 102v52h-51v-52h51zM435 102v52h-51v-52h51zM486 230v231h-460v-231h460zM461 435v-179h-410v179h410zM128 282v51h-51v-51h51z
M205 282v51h-51v-51h51zM282 282v51h-52v-51h52zM435 282v51h-128v-51h128zM282 358v52h-205v-52h205zM358 358v52h-51v-52h51zM435 358v52h-51v-52h51z" />
</svg>
