
<svg xmlns="http://www.w3.org/2000/svg" xmlns:xlink="http://www.w3.org/1999/xlink" version="1.1" viewBox="-10 0 522 512">
   <path fill="currentColor"
d="M219 326q0 -33 -19 -57q-13 -16 -37 -21q-20 -5 -39 0q-6 -37 20.5 -78t67.5 -62l-42 -58q-43 20 -78 54q-38 38 -56 83q-21 50 -14.5 104t36 86.5t72.5 32.5q39 0 64 -22.5t25 -61.5zM460 326q0 -33 -18 -57q-13 -16 -37 -21q-21 -5 -39 0q-7 -37 19.5 -78t67.5 -62
l-41 -58q-44 20 -78 54q-38 38 -57 83q-20 50 -13.5 104t35.5 86.5t72 32.5q39 0 64 -22.5t25 -61.5z" />
</svg>
