
<svg xmlns="http://www.w3.org/2000/svg" xmlns:xlink="http://www.w3.org/1999/xlink" version="1.1" viewBox="-10 0 532 512">
   <path fill="currentColor"
d="M461 333h25q11 0 18.5 7.5t7.5 18.5v76q0 11 -7.5 18.5t-18.5 7.5h-102q-11 0 -18.5 -7.5t-7.5 -18.5v-76q0 -11 7.5 -18.5t18.5 -7.5h26v-51h-128v51h25q11 0 18.5 7.5t7.5 18.5v76q0 11 -7.5 18.5t-18.5 7.5h-102q-11 0 -18.5 -7.5t-7.5 -18.5v-76q0 -11 7.5 -18.5
t18.5 -7.5h25v-51h-128v51h26q11 0 18.5 7.5t7.5 18.5v76q0 11 -7.5 18.5t-18.5 7.5h-102q-11 0 -18.5 -7.5t-7.5 -18.5v-76q0 -11 7.5 -18.5t18.5 -7.5h25v-51q0 -22 15 -37t36 -15h128v-51h-25q-11 0 -18.5 -7.5t-7.5 -18.5v-76q0 -11 7.5 -18.5t18.5 -7.5h102
q11 0 18.5 7.5t7.5 18.5v76q0 11 -7.5 18.5t-18.5 7.5h-25v51h128q21 0 36 15t15 37v51z" />
</svg>
