
<svg xmlns="http://www.w3.org/2000/svg" xmlns:xlink="http://www.w3.org/1999/xlink" version="1.1" viewBox="-10 0 522 512">
   <path fill="currentColor"
d="M415 148q9 14 6 29.5t-16 24.5t-28.5 6t-24.5 -17q-6 -7 -15 -16t-17.5 -15t-19 -10.5t-21.5 -6.5q-23 -5 -46 0q-11 2 -21.5 6.5t-19.5 10.5t-17.5 14.5t-14.5 17.5t-10 19v1q-4 8 -6 18h-118v-76h68l3 -6q10 -15 23 -28t29 -23.5t33 -18t35 -10.5q39 -8 78 0
q18 3 35 10.5t33 18t29 23.5t23 28zM320 256q0 -26 -19 -45t-45 -19t-45 19t-19 45t19 45t45 19t45 -19t19 -45zM97 364q-9 -14 -6 -29.5t16 -24.5t28.5 -6t24.5 17q6 7 15 16t17.5 15t18 10t22.5 7q22 5 46 0q13 -3 22.5 -7t18.5 -10t17 -14t14.5 -18t10.5 -19v-1
q4 -8 6 -18h118v76h-68l-3 6q-10 15 -23 28t-29 23.5t-32.5 17.5t-35.5 11q-39 8 -78 0q-19 -4 -35.5 -11t-32.5 -17.5t-29 -23.5t-23 -28z" />
</svg>
