
<svg xmlns="http://www.w3.org/2000/svg" xmlns:xlink="http://www.w3.org/1999/xlink" version="1.1" viewBox="-10 0 532 512">
   <path fill="currentColor"
d="M26 256q15 11 38 11t38 -11q26 -19 26 -51q0 32 26 51q15 11 38 11t38 -11q26 -19 26 -51q0 32 26 51q15 11 38 11t38 -11q26 -19 26 -51q0 32 26 51q15 11 38 11t38 -11q26 -19 26 -51v-26l-77 -179h-333l-102 179v26q0 32 26 51zM77 486h128v-128h102v128h128v-179
q-13 -2 -25 -11q-15 -10 -19 -16q-7 -9 -7 -24q0 14 -7 24q-4 6 -18.5 16.5t-38 10.5t-38.5 -10.5t-19 -16.5q-7 -9 -7 -24q0 14 -7 24q-4 6 -18.5 16.5t-38 10.5t-38.5 -10.5t-19 -16.5q-7 -10 -7 -24q0 14 -7 24q-4 6 -17.5 15.5t-26.5 11.5v179z" />
</svg>
