
<svg xmlns="http://www.w3.org/2000/svg" xmlns:xlink="http://www.w3.org/1999/xlink" version="1.1" viewBox="-10 0 533 512">
   <path fill="currentColor"
d="M0 461h256v-7q62 16 122 -6q52 -19 86.5 -61t44.5 -96t-10 -106q-18 -49 -56 -82.5t-87.5 -45.5t-99.5 1v-7h-256v410zM230 77v358h-204v-358h204zM370 287q-13 26 -40.5 35.5t-53.5 -3.5q-12 -6 -20 -15v-96q16 -17 38.5 -21t43.5 6q26 13 35.5 40.5t-3.5 53.5zM300 266
q4 3 9 2.5t8.5 -5t2.5 -9.5t-5 -8t-9.5 -2.5t-8.5 4.5t-2.5 9.5t5.5 8.5zM377 360q-23 15 -48.5 19.5t-49.5 -1.5q-6 -1 -8.5 -6t-1.5 -10t6 -7.5t10 -1.5l4 1q40 7 73 -15q19 -13 30 -30q3 -5 8 -6t9.5 2t5.5 8t-2 9q-14 23 -36 38zM403 400q-27 19 -59.5 26t-63.5 2
q-6 -1 -9 -5.5t-2 -10t5.5 -8.5t10.5 -2l5 1q54 6 99 -24q26 -17 44 -44q3 -5 8 -6t9.5 1.5t5.5 8t-2 9.5q-19 32 -51 52z" />
</svg>
