
<svg xmlns="http://www.w3.org/2000/svg" xmlns:xlink="http://www.w3.org/1999/xlink" version="1.1" viewBox="-10 0 522 512">
   <path fill="currentColor"
d="M282 179h-39q-12 0 -23 5t-18 13l-23 -69h-73l-61 179h43l19 -51h72v102h-128q-21 0 -36 -15t-15 -36v-179q0 -21 15 -36t36 -15h179q22 0 37 15t15 36v51zM167 230h-52l26 -75zM256 205h179q21 0 36 15t15 36v179q0 21 -15 36t-36 15h-179q-21 0 -36 -15t-15 -36v-179
q0 -21 15 -36t36 -15zM442 333v-28h-82v-55h-29v55h-81v28h32q3 17 11.5 34.5t21.5 32.5q-16 7 -33.5 11.5t-25.5 4.5l1 4q5 24 4 33q16 0 39.5 -8.5t44.5 -20.5q21 12 45 20.5t41 8.5q-1 -10 4 -35l1 -2q-9 0 -26.5 -5t-34.5 -11q13 -15 21.5 -33t10.5 -34h35zM344 382
q-20 -18 -26 -49h54q-7 31 -26 49l-1 1z" />
</svg>
