
<svg xmlns="http://www.w3.org/2000/svg" xmlns:xlink="http://www.w3.org/1999/xlink" version="1.1" viewBox="-10 0 522 512">
   <path fill="currentColor"
d="M461 461v-315q12 -6 18.5 -18t6.5 -26q0 -21 -15 -36t-36 -15t-36 15t-15 36q0 15 8 27.5t21 18.5l-106 169q-13 -10 -29 -10t-29 9t-19 23l-54 -39q3 -9 3 -18q0 -22 -15 -37t-36 -15t-36 15t-15 37q0 13 6.5 24.5t18.5 18.5l-76 136h435zM435 77q11 0 18.5 7.5t7.5 18
t-7.5 18t-18 7.5t-18 -7.5t-7.5 -18t7.5 -18t17.5 -7.5zM128 256q11 0 18.5 7.5t7.5 18t-7.5 18t-18.5 7.5t-18.5 -7.5t-7.5 -18t7.5 -18t18.5 -7.5zM278 333q10 0 17.5 7.5t7.5 18t-7.5 18t-18 7.5t-18 -7.5t-7.5 -18t7.5 -18t18.5 -7.5z" />
</svg>
