
<svg xmlns="http://www.w3.org/2000/svg" xmlns:xlink="http://www.w3.org/1999/xlink" version="1.1" viewBox="-10 0 529 512">
   <path fill="currentColor"
d="M102 128h-82q-8 0 -13.5 6t-4.5 16l40 255l25 -100q26 -105 32 -133q2 -10 9 -14t16 -4h132l-20 -60q-5 -17 -20 -17h-84q-8 0 -13.5 4.5t-7.5 11.5zM227 128h-102l7 -13q8 -13 15 -13h55q7 0 17 13zM68 416q-12 19 -32 19h403q10 0 17 -5.5t9 -15.5l43 -216q1 -9 -4 -14
t-12 -5h-82v-37q0 -4 -5 -9t-12 -5h-97q-8 0 -16 7q-4 4 -6 8l-18 36h-113q-6 0 -11 3.5t-7 9.5l-44 188q-4 23 -13 36zM394 179h-112l4 -6q5 -8 11 -13q7 -6 14 -6h58q12 0 19 12q4 7 6 13v0z" />
</svg>
