
<svg xmlns="http://www.w3.org/2000/svg" xmlns:xlink="http://www.w3.org/1999/xlink" version="1.1" viewBox="-10 0 522 512">
   <path fill="currentColor"
d="M141 179q-16 0 -27.5 -11t-11.5 -27t11.5 -27.5t27.5 -11.5t27 11.5t11 27.5t-11 27t-27 11zM205 128h230v26h-230v-26zM141 307q-16 0 -27.5 -11t-11.5 -27t11.5 -27.5t27.5 -11.5t27 11.5t11 27.5t-11 27t-27 11zM205 256h230v26h-230v-26zM141 435q-16 0 -27.5 -11
t-11.5 -27t11.5 -27.5t27.5 -11.5t27 11.5t11 27.5t-11 27t-27 11zM205 384h230v26h-230v-26z" />
</svg>
