
<svg xmlns="http://www.w3.org/2000/svg" xmlns:xlink="http://www.w3.org/1999/xlink" version="1.1" viewBox="-10 0 522 512">
   <path fill="currentColor"
d="M410 282q-16 -14 -41 -20q-14 -3 -45 -6h-1l25 54l-92 94l-92 -92l25 -56q-58 0 -87 26q-25 22 -25 79v72l26 8q32 8 66 14q46 7 87 6q41 1 87 -6q34 -6 66 -14l26 -8v-72q0 -54 -25 -79zM169 238q15 0 33.5 -6t22.5 -12q-19 -24 -24 -41q-8 -26 4 -59l5 5q8 6 19 12
q15 7 34 12q24 7 52 10q0 17 -8 33q-7 12 -20 28q4 6 22.5 12t34 6t25.5 -3.5t10 -9.5q0 -3 -13 -17q-24 -26 -28 -39q-4 -11 -5 -34q-2 -29 -8 -45q-16 -39 -69 -39t-69 39q-6 16 -8 45q-1 23 -5 34q-4 13 -28 39q-13 14 -13 17q0 6 10 9.5t26 3.5zM256 282l-59 -26l59 148
l59 -148z" />
</svg>
