
<svg xmlns="http://www.w3.org/2000/svg" xmlns:xlink="http://www.w3.org/1999/xlink" version="1.1" viewBox="-10 0 522 512">
   <path fill="currentColor"
d="M454 71q21 21 28.5 49.5t0 57t-28.5 49.5l-39 39q-21 21 -49.5 28t-56.5 0l106 -106q16 -16 16 -39t-16 -39t-39 -16t-39 16l-106 106q-7 -28 0 -56.5t28 -49.5l39 -39q21 -21 49.5 -28.5t57 0t49.5 28.5zM220 344l137 -137q8 -8 8 -19.5t-8.5 -19.5t-20 -7.5t-19.5 7.5
l-136 137q-8 8 -8 19.5t8 19.5t19.5 7.5t19.5 -7.5zM200 402l106 -106q8 28 1 56.5t-28 49.5l-39 39q-22 22 -50 29t-56.5 0t-50 -28.5t-29 -50t0 -57t28.5 -49.5l40 -39q21 -21 49 -28t57 0l-106 106q-17 16 -17 39t16.5 39.5t39 16.5t38.5 -17z" />
</svg>
