
<svg xmlns="http://www.w3.org/2000/svg" xmlns:xlink="http://www.w3.org/1999/xlink" version="1.1" viewBox="-10 0 522 512">
   <path fill="currentColor"
d="M486 461v-410q0 -10 -7.5 -17.5t-17.5 -7.5h-410q-10 0 -17.5 7.5t-7.5 17.5v410q0 10 7.5 17.5t17.5 7.5h410q10 0 17.5 -7.5t7.5 -17.5zM102 77q11 0 18.5 7.5t7.5 18t-7.5 18t-18 7.5t-18 -7.5t-7.5 -18t7.5 -18t17.5 -7.5zM435 77v153h-281v-153h281zM102 282
q11 0 18.5 7.5t7.5 18t-7.5 18t-18 7.5t-18 -7.5t-7.5 -18t7.5 -18t17.5 -7.5zM435 282v153h-281v-153h281z" />
</svg>
