
<svg xmlns="http://www.w3.org/2000/svg" xmlns:xlink="http://www.w3.org/1999/xlink" version="1.1" viewBox="-10 0 522 512">
   <path fill="currentColor"
d="M230 0q-62 0 -115 31t-84 84t-31 115.5t31 115.5t84 84t115.5 31t115.5 -31t84 -84t31 -115.5t-31 -115.5t-84 -84t-116 -31zM28 248h65q1 35 9 69h-55q-15 -33 -19 -69zM248 110v-80q38 15 57 52q8 13 13 27zM330 144q9 34 11 69h-93v-69h82zM213 30v80h-71
q6 -15 14 -28q19 -37 57 -52zM213 144v69h-93q2 -35 11 -69h82zM93 213h-65q4 -36 19 -69h55q-8 34 -9 69zM120 248h93v69h-82q-9 -34 -11 -69zM213 350v79q-38 -14 -57 -51q-8 -13 -13 -28h70zM248 429v-78h70q-5 15 -13 28q-19 37 -57 51v-1zM248 316v-69h92q-1 35 -10 69
h-82zM368 247h65q-3 36 -19 69h-56q8 -34 10 -68v-1zM368 212q-1 -34 -10 -68h56q15 33 18 69zM394 110h-46q-12 -36 -35 -65q48 22 80 65h1zM148 45q-23 29 -35 65h-45q32 -43 80 -65zM68 352h45q12 35 35 65q-49 -22 -80 -66v1zM312 417q23 -30 36 -65h45q-32 42 -80 64z
" />
</svg>
