
<svg xmlns="http://www.w3.org/2000/svg" xmlns:xlink="http://www.w3.org/1999/xlink" version="1.1" viewBox="-10 0 522 512">
   <path fill="currentColor"
d="M102 384v-77h-51v-256h307v77h52v77h51v256h-307v-77h-52zM282 77q-22 0 -37 15t-15 36h103q0 -21 -15 -36t-36 -15zM102 282v-128h-25v128h25zM282 205h102q0 -21 -15 -36t-36 -15t-36 15t-15 36zM154 358v-128h-26v128h26zM384 333q21 0 36 -15t15 -36.5t-15 -36.5
t-36 -15t-36 15t-15 36.5t15 36.5t36 15zM435 435v-51q-42 0 -76 -12q-20 -7 -52 -26.5t-52 -26.5q-33 -12 -76 -12v128h256z" />
</svg>
