
<svg xmlns="http://www.w3.org/2000/svg" xmlns:xlink="http://www.w3.org/1999/xlink" version="1.1" viewBox="-10 0 531 512">
   <path fill="currentColor"
d="M305 10l35 36q15 2 46 -2q28 -4 40 -3q20 2 32.5 14t13.5 33q1 12 -2 39q-4 32 -2 46l36 36q7 8 7 18.5t-7 17.5l-235 236q-8 7 -18.5 7t-18.5 -7l-199 -199q-7 -8 -7 -18.5t7 -18.5l236 -235q7 -8 17.5 -8t18.5 8zM319 68l-14 14l126 127l15 -15q-6 -19 -4 -46
q1 -12 3 -24q2 -22 2 -31q-1 -13 -7 -19.5t-19 -6.5q-9 -1 -31 2q-12 2 -24 2q-27 3 -47 -3zM422 91q8 8 8 18.5t-7.5 18t-18 7.5t-18 -7.5t-7.5 -18t7.5 -18t18 -7.5t17.5 7zM250 101l-18 18l163 163l18 -19zM214 137l-18 18l163 163l18 -18zM178 173l-18 18l163 163
l18 -18zM142 209l-18 18l162 163l19 -18zM105 245l-18 18l163 163l19 -18z" />
</svg>
