
<svg xmlns="http://www.w3.org/2000/svg" xmlns:xlink="http://www.w3.org/1999/xlink" version="1.1" viewBox="-10 0 522 512">
   <path fill="currentColor"
d="M461 410v-308q0 -10 -7.5 -17.5t-18.5 -7.5h-333q-10 0 -17.5 7.5t-7.5 17.5v308q0 10 7.5 17.5t17.5 7.5h333q11 0 18.5 -7.5t7.5 -17.5zM205 282h25q11 0 18.5 7.5t7.5 18t-7.5 18t-18.5 7.5h-25v38q0 6 -4 9.5t-9 3.5t-9 -3.5t-4 -9.5v-38h-25q-11 0 -18.5 -7.5
t-7.5 -18t7.5 -18t18.5 -7.5h25v-141q0 -6 4 -9.5t9 -3.5t9 3.5t4 9.5v141zM333 230h-26q-10 0 -17.5 -7.5t-7.5 -18t7.5 -18t17.5 -7.5h26v-38q0 -6 3.5 -9.5t9 -3.5t9 3.5t3.5 9.5v38h26q11 0 18.5 7.5t7.5 18t-7.5 18t-18.5 7.5h-26v141q0 6 -3.5 9.5t-9 3.5t-9 -3.5
t-3.5 -9.5v-141z" />
</svg>
