
<svg xmlns="http://www.w3.org/2000/svg" xmlns:xlink="http://www.w3.org/1999/xlink" version="1.1" viewBox="-10 0 522 512">
   <path fill="currentColor"
d="M436 69q25 25 33.5 58t0 66t-33.5 57l-180 181q-24 24 -55.5 32.5t-63.5 1t-57 -29.5l-4 -4q-25 -24 -33.5 -57t0 -66t33.5 -58l126 -127q17 -17 41 -21t46 7q13 6 21 14q22 23 22 54.5t-22 54.5l-126 127q-8 7 -18.5 7t-18 -7.5t-7.5 -18t8 -17.5l126 -127q7 -8 7 -18.5
t-7 -18t-18 -7.5t-18 8l-126 126q-18 18 -21.5 42t6.5 46q6 12 14.5 21t21.5 15q22 10 46 6t41 -21l180 -181q23 -22 23 -54t-22 -54t-52 -23q-3 1 -6 0q-9 -1 -15 -7q-8 -7 -7.5 -18t7.5 -19q6 -5 15 -7q4 -1 10 1q49 2 83 36z" />
</svg>
