
<svg xmlns="http://www.w3.org/2000/svg" xmlns:xlink="http://www.w3.org/1999/xlink" version="1.1" viewBox="-10 0 532 512">
   <path fill="currentColor"
d="M512 256q0 -69 -34.5 -128t-93.5 -93.5t-128 -34.5t-128 34.5t-93.5 93.5t-34.5 128.5t34.5 128t93 93t128 34.5t128.5 -34.5t93.5 -93.5t34.5 -128zM199 393l-87 -234l30 -2q6 -1 8 -8t-1 -13.5t-9 -6.5l-21 1q-25 2 -39 2l-15 -1q31 -47 81.5 -75t109.5 -28q44 0 84 16
t71 44q-15 -2 -28 8q-14 12 -14 33q0 11 5 23q4 8 13 24l5 7q14 24 14 63q0 23 -18 78q-9 27 -18 50v0l-78 -215q9 0 16 -2l5 -2q6 -1 8 -9t-0.5 -15.5t-8.5 -6.5l-22 1q-24 2 -39 2q-22 0 -60 -3v0q-6 -1 -8.5 7t-0.5 16t8 8l23 2l33 87zM446 256v-1q8 -21 11 -38
q5 -31 0 -70q27 50 27 109q0 63 -30.5 116t-82.5 83zM156 463q-58 -28 -93 -84t-35 -123q0 -50 19 -92zM259 293l66 179q-34 12 -69 12q-31 0 -59 -9z" />
</svg>
