
<svg xmlns="http://www.w3.org/2000/svg" xmlns:xlink="http://www.w3.org/1999/xlink" version="1.1" viewBox="-10 0 532 512">
   <path fill="currentColor"
d="M512 256q0 -70 -34.5 -128.5t-93 -93t-128.5 -34.5t-128.5 34.5t-93 93t-34.5 128.5t34.5 128.5t93 93t128.5 34.5t128.5 -34.5t93 -93t34.5 -128.5zM256 26q63 0 115.5 31t83.5 83.5t31 115.5t-31 115.5t-83.5 83.5t-115.5 31t-115.5 -31t-83.5 -83.5t-31 -115.5
t31 -115.5t83.5 -83.5t115.5 -31zM205 379l-78 -210l27 -2q5 0 7 -6.5t-0.5 -12.5t-8.5 -6l-19 1q-22 1 -35 1h-14q29 -42 74 -67t98 -25q39 0 75 14t63 39q-13 -1 -24 8q-13 10 -13 29q0 10 6 22q3 8 12 23l3 3q12 22 12 57q0 21 -16 70q-8 24 -16 44v0l-69 -192q7 0 14 -2
l5 -2q5 0 6.5 -7t-0.5 -14t-8 -7l-19 2q-22 1 -35 1t-35 -1l-19 -2q-6 0 -8 7t-0.5 14t6.5 7l22 2l29 78zM359 434l67 -178l4 -13q5 -17 7 -35q2 -25 -1 -50q24 44 24 99t-27.5 102.5t-73.5 74.5zM69 173l97 269q-51 -26 -82.5 -76t-31.5 -110q0 -46 17 -83zM259 289l59 160
q-30 11 -62 11q-26 0 -53 -8z" />
</svg>
