
<svg xmlns="http://www.w3.org/2000/svg" xmlns:xlink="http://www.w3.org/1999/xlink" version="1.1" viewBox="-10 0 522 512">
   <path fill="currentColor"
d="M154 179v-102h-18l-33 26l10 13l12 -9l8 -7l-1 10v69h22zM205 128h230v26h-230v-26zM173 306v-18h-44v-1l13 -12q15 -14 18 -18q6 -7 8 -13t2 -13.5t-3.5 -13.5t-11 -9.5t-16 -3.5t-13.5 1t-11 4t-13 9l12 14q6 -5 11.5 -8t11.5 -3t9 3t3 9q0 4 -1.5 8t-4.5 9l-15 15
l-25 26v15h70zM205 256h230v26h-230v-26zM172 357q0 -12 -9.5 -18.5t-25.5 -6.5q-20 0 -34 11l10 15q7 -5 12 -6.5t10 -1.5q15 0 15 12q0 8 -5.5 11t-18.5 3h-7v17h7q14 0 20 3t6 11t-5.5 11.5t-16.5 3.5q-7 0 -14 -1.5t-14 -5.5v19q13 6 31 6q20 0 31 -8.5t11 -23.5
q0 -10 -6.5 -16.5t-19.5 -7.5v-1q10 -2 16.5 -9t6.5 -17zM205 384h230v26h-230v-26z" />
</svg>
