
<svg xmlns="http://www.w3.org/2000/svg" xmlns:xlink="http://www.w3.org/1999/xlink" version="1.1" viewBox="-10 0 522 512">
   <path fill="currentColor"
d="M256 26q39 0 72 19t52.5 52t19.5 72q0 21 -13 52q-10 22 -25 46l-14 20q-6 8 -10.5 21.5t-4.5 24.5v25q0 11 -7.5 18.5t-18.5 7.5h-102q-11 0 -18.5 -7.5t-7.5 -18.5v-25q0 -11 -4.5 -24.5t-10.5 -21.5l-14 -20q-15 -24 -24 -46q-14 -31 -14 -52q0 -39 19.5 -72t52.5 -52
t72 -19zM179 432v-22h154v22q0 13 -4 21t-15 8h-7q0 12 -7 18.5t-19 6.5h-51q-12 0 -18.5 -6.5t-6.5 -18.5h-7q-11 0 -15 -8t-4 -21z" />
</svg>
